<svg width="33" height="32" viewBox="0 0 33 32" fill="none" xmlns="http://www.w3.org/2000/svg">
<g clip-path="url(#clip0_1_2)">
<path d="M16.5 0C7.663 0 0.5 7.163 0.5 16C0.5 24.837 7.663 32 16.5 32C25.337 32 32.5 24.837 32.5 16C32.5 7.163 25.337 0 16.5 0Z" fill="#D97757"/>
<path fill-rule="evenodd" clip-rule="evenodd" d="M16.5 26.5C22.299 26.5 27 21.799 27 16C27 10.201 22.299 5.5 16.5 5.5C10.701 5.5 6 10.201 6 16C6 21.799 10.701 26.5 16.5 26.5ZM16.5 28C23.127 28 28.5 22.627 28.5 16C28.5 9.373 23.127 4 16.5 4C9.873 4 4.5 9.373 4.5 16C4.5 22.627 9.873 28 16.5 28Z" fill="white"/>
</g>
<defs>
<clipPath id="clip0_1_2">
<rect width="32" height="32" fill="white" transform="translate(0.5)"/>
</clipPath>
</defs>
</svg>